<mxfile host="www.draw.io" modified="2019-12-30T18:17:17.514Z" agent="Mozilla/5.0 (Windows NT 10.0; Win64; x64) AppleWebKit/537.36 (KHTML, like Gecko) Chrome/79.0.3945.88 Safari/537.36" etag="okpDX_7atqinK9gr1eQW" version="12.4.7" type="github">
  <diagram id="7U2K2NG7cfuiZaMjfOM2" name="Page-1">
    <mxGraphModel dx="1296" dy="705" grid="1" gridSize="10" guides="1" tooltips="1" connect="1" arrows="1" fold="1" page="1" pageScale="1" pageWidth="827" pageHeight="1169" math="0" shadow="0">
      <root>
        <mxCell id="0"/>
        <mxCell id="1" parent="0"/>
        <mxCell id="lT_C5QnImEUUOf2nxoUM-20" value="" style="swimlane;html=1;childLayout=stackLayout;resizeParent=1;resizeParentMax=0;startSize=20;" parent="1" vertex="1">
          <mxGeometry x="20" y="20" width="780" height="680" as="geometry"/>
        </mxCell>
        <mxCell id="lT_C5QnImEUUOf2nxoUM-21" value="customer" style="swimlane;html=1;startSize=20;" parent="lT_C5QnImEUUOf2nxoUM-20" vertex="1">
          <mxGeometry y="20" width="360" height="660" as="geometry"/>
        </mxCell>
        <mxCell id="lT_C5QnImEUUOf2nxoUM-30" value="" style="shape=mxgraph.bpmn.shape;html=1;verticalLabelPosition=bottom;labelBackgroundColor=#ffffff;verticalAlign=top;align=center;perimeter=ellipsePerimeter;outlineConnect=0;outline=standard;symbol=general;" parent="lT_C5QnImEUUOf2nxoUM-21" vertex="1">
          <mxGeometry x="110" y="30" width="20" height="20" as="geometry"/>
        </mxCell>
        <mxCell id="lT_C5QnImEUUOf2nxoUM-35" value="open app" style="strokeWidth=2;html=1;shape=mxgraph.flowchart.terminator;whiteSpace=wrap;" parent="lT_C5QnImEUUOf2nxoUM-21" vertex="1">
          <mxGeometry x="70" y="80" width="110" height="40" as="geometry"/>
        </mxCell>
        <mxCell id="lT_C5QnImEUUOf2nxoUM-71" style="edgeStyle=orthogonalEdgeStyle;rounded=0;orthogonalLoop=1;jettySize=auto;html=1;exitX=0;exitY=0.5;exitDx=0;exitDy=0;exitPerimeter=0;" parent="lT_C5QnImEUUOf2nxoUM-21" source="lT_C5QnImEUUOf2nxoUM-39" target="lT_C5QnImEUUOf2nxoUM-70" edge="1">
          <mxGeometry relative="1" as="geometry"/>
        </mxCell>
        <mxCell id="lT_C5QnImEUUOf2nxoUM-72" value="yes" style="text;html=1;align=center;verticalAlign=middle;resizable=0;points=[];labelBackgroundColor=#ffffff;" parent="lT_C5QnImEUUOf2nxoUM-71" vertex="1" connectable="0">
          <mxGeometry x="-0.2788" y="2" relative="1" as="geometry">
            <mxPoint as="offset"/>
          </mxGeometry>
        </mxCell>
        <mxCell id="lT_C5QnImEUUOf2nxoUM-39" value="have account" style="strokeWidth=2;html=1;shape=mxgraph.flowchart.decision;whiteSpace=wrap;" parent="lT_C5QnImEUUOf2nxoUM-21" vertex="1">
          <mxGeometry x="80" y="150" width="100" height="60" as="geometry"/>
        </mxCell>
        <mxCell id="lT_C5QnImEUUOf2nxoUM-76" style="edgeStyle=orthogonalEdgeStyle;rounded=0;orthogonalLoop=1;jettySize=auto;html=1;exitX=0.5;exitY=1;exitDx=0;exitDy=0;exitPerimeter=0;entryX=0.5;entryY=0;entryDx=0;entryDy=0;entryPerimeter=0;" parent="lT_C5QnImEUUOf2nxoUM-21" source="lT_C5QnImEUUOf2nxoUM-42" target="lT_C5QnImEUUOf2nxoUM-52" edge="1">
          <mxGeometry relative="1" as="geometry"/>
        </mxCell>
        <mxCell id="lT_C5QnImEUUOf2nxoUM-42" value="enter sign up with phone no" style="strokeWidth=2;html=1;shape=mxgraph.flowchart.terminator;whiteSpace=wrap;" parent="lT_C5QnImEUUOf2nxoUM-21" vertex="1">
          <mxGeometry x="210" y="220" width="90" height="40" as="geometry"/>
        </mxCell>
        <mxCell id="lT_C5QnImEUUOf2nxoUM-52" value="enter required input field" style="strokeWidth=2;html=1;shape=mxgraph.flowchart.terminator;whiteSpace=wrap;" parent="lT_C5QnImEUUOf2nxoUM-21" vertex="1">
          <mxGeometry x="205" y="290" width="100" height="40" as="geometry"/>
        </mxCell>
        <mxCell id="lT_C5QnImEUUOf2nxoUM-75" style="edgeStyle=orthogonalEdgeStyle;rounded=0;orthogonalLoop=1;jettySize=auto;html=1;exitX=0.5;exitY=1;exitDx=0;exitDy=0;exitPerimeter=0;entryX=0.5;entryY=0;entryDx=0;entryDy=0;entryPerimeter=0;" parent="lT_C5QnImEUUOf2nxoUM-21" source="lT_C5QnImEUUOf2nxoUM-70" target="lT_C5QnImEUUOf2nxoUM-74" edge="1">
          <mxGeometry relative="1" as="geometry"/>
        </mxCell>
        <mxCell id="lT_C5QnImEUUOf2nxoUM-70" value="login" style="strokeWidth=2;html=1;shape=mxgraph.flowchart.terminator;whiteSpace=wrap;" parent="lT_C5QnImEUUOf2nxoUM-21" vertex="1">
          <mxGeometry x="50" y="400" width="100" height="40" as="geometry"/>
        </mxCell>
        <mxCell id="lT_C5QnImEUUOf2nxoUM-78" style="edgeStyle=orthogonalEdgeStyle;rounded=0;orthogonalLoop=1;jettySize=auto;html=1;exitX=0.5;exitY=1;exitDx=0;exitDy=0;exitPerimeter=0;entryX=0.5;entryY=0;entryDx=0;entryDy=0;entryPerimeter=0;" parent="lT_C5QnImEUUOf2nxoUM-21" source="lT_C5QnImEUUOf2nxoUM-74" target="lT_C5QnImEUUOf2nxoUM-77" edge="1">
          <mxGeometry relative="1" as="geometry"/>
        </mxCell>
        <mxCell id="lT_C5QnImEUUOf2nxoUM-74" value="enter phone and password" style="strokeWidth=2;html=1;shape=mxgraph.flowchart.terminator;whiteSpace=wrap;" parent="lT_C5QnImEUUOf2nxoUM-21" vertex="1">
          <mxGeometry x="50" y="460" width="100" height="40" as="geometry"/>
        </mxCell>
        <mxCell id="lT_C5QnImEUUOf2nxoUM-80" style="edgeStyle=orthogonalEdgeStyle;rounded=0;orthogonalLoop=1;jettySize=auto;html=1;exitX=0.5;exitY=1;exitDx=0;exitDy=0;exitPerimeter=0;entryX=0.483;entryY=0.211;entryDx=0;entryDy=0;entryPerimeter=0;" parent="lT_C5QnImEUUOf2nxoUM-21" source="lT_C5QnImEUUOf2nxoUM-77" target="lT_C5QnImEUUOf2nxoUM-79" edge="1">
          <mxGeometry relative="1" as="geometry"/>
        </mxCell>
        <mxCell id="lT_C5QnImEUUOf2nxoUM-77" value="display home page" style="strokeWidth=2;html=1;shape=mxgraph.flowchart.terminator;whiteSpace=wrap;" parent="lT_C5QnImEUUOf2nxoUM-21" vertex="1">
          <mxGeometry x="50" y="526.33" width="100" height="36" as="geometry"/>
        </mxCell>
        <mxCell id="lT_C5QnImEUUOf2nxoUM-79" value="" style="ellipse;html=1;shape=endState;fillColor=#000000;strokeColor=#ff0000;" parent="lT_C5QnImEUUOf2nxoUM-21" vertex="1">
          <mxGeometry x="85" y="590" width="30" height="30" as="geometry"/>
        </mxCell>
        <mxCell id="lT_C5QnImEUUOf2nxoUM-22" value="system" style="swimlane;html=1;startSize=20;" parent="lT_C5QnImEUUOf2nxoUM-20" vertex="1">
          <mxGeometry x="360" y="20" width="420" height="660" as="geometry"/>
        </mxCell>
        <mxCell id="lT_C5QnImEUUOf2nxoUM-46" value="authentication mobiile no" style="strokeWidth=2;html=1;shape=mxgraph.flowchart.decision;whiteSpace=wrap;" parent="lT_C5QnImEUUOf2nxoUM-22" vertex="1">
          <mxGeometry x="90" y="200" width="100" height="80" as="geometry"/>
        </mxCell>
        <mxCell id="lT_C5QnImEUUOf2nxoUM-66" value="no" style="edgeStyle=orthogonalEdgeStyle;rounded=0;orthogonalLoop=1;jettySize=auto;html=1;exitX=0.5;exitY=1;exitDx=0;exitDy=0;exitPerimeter=0;entryX=0.5;entryY=0;entryDx=0;entryDy=0;entryPerimeter=0;" parent="lT_C5QnImEUUOf2nxoUM-22" source="lT_C5QnImEUUOf2nxoUM-56" target="lT_C5QnImEUUOf2nxoUM-60" edge="1">
          <mxGeometry relative="1" as="geometry"/>
        </mxCell>
        <mxCell id="lT_C5QnImEUUOf2nxoUM-56" value="error on input entry" style="strokeWidth=2;html=1;shape=mxgraph.flowchart.decision;whiteSpace=wrap;" parent="lT_C5QnImEUUOf2nxoUM-22" vertex="1">
          <mxGeometry x="90" y="320" width="100" height="70" as="geometry"/>
        </mxCell>
        <mxCell id="lT_C5QnImEUUOf2nxoUM-67" style="edgeStyle=orthogonalEdgeStyle;rounded=0;orthogonalLoop=1;jettySize=auto;html=1;exitX=0.5;exitY=1;exitDx=0;exitDy=0;exitPerimeter=0;entryX=0.5;entryY=0;entryDx=0;entryDy=0;" parent="lT_C5QnImEUUOf2nxoUM-22" source="lT_C5QnImEUUOf2nxoUM-60" target="lT_C5QnImEUUOf2nxoUM-61" edge="1">
          <mxGeometry relative="1" as="geometry">
            <Array as="points">
              <mxPoint x="140" y="470"/>
              <mxPoint x="140" y="470"/>
            </Array>
          </mxGeometry>
        </mxCell>
        <mxCell id="lT_C5QnImEUUOf2nxoUM-60" value="approve registeration" style="strokeWidth=2;html=1;shape=mxgraph.flowchart.terminator;whiteSpace=wrap;" parent="lT_C5QnImEUUOf2nxoUM-22" vertex="1">
          <mxGeometry x="90" y="430" width="100" height="40" as="geometry"/>
        </mxCell>
        <mxCell id="lT_C5QnImEUUOf2nxoUM-61" value="user account created" style="rounded=0;whiteSpace=wrap;html=1;" parent="lT_C5QnImEUUOf2nxoUM-22" vertex="1">
          <mxGeometry x="80" y="500" width="120" height="40" as="geometry"/>
        </mxCell>
        <mxCell id="lT_C5QnImEUUOf2nxoUM-49" value="Resend Otp" style="edgeStyle=orthogonalEdgeStyle;rounded=0;orthogonalLoop=1;jettySize=auto;html=1;exitX=0.5;exitY=0;exitDx=0;exitDy=0;exitPerimeter=0;entryX=0.89;entryY=0.11;entryDx=0;entryDy=0;entryPerimeter=0;" parent="lT_C5QnImEUUOf2nxoUM-20" source="lT_C5QnImEUUOf2nxoUM-46" target="lT_C5QnImEUUOf2nxoUM-42" edge="1">
          <mxGeometry relative="1" as="geometry">
            <mxPoint x="270" y="180" as="targetPoint"/>
            <Array as="points">
              <mxPoint x="500" y="200"/>
              <mxPoint x="375" y="200"/>
              <mxPoint x="375" y="245"/>
            </Array>
          </mxGeometry>
        </mxCell>
        <mxCell id="lT_C5QnImEUUOf2nxoUM-54" style="edgeStyle=orthogonalEdgeStyle;rounded=0;orthogonalLoop=1;jettySize=auto;html=1;exitX=0.5;exitY=1;exitDx=0;exitDy=0;exitPerimeter=0;entryX=1;entryY=0.5;entryDx=0;entryDy=0;entryPerimeter=0;" parent="lT_C5QnImEUUOf2nxoUM-20" source="lT_C5QnImEUUOf2nxoUM-46" target="lT_C5QnImEUUOf2nxoUM-52" edge="1">
          <mxGeometry relative="1" as="geometry"/>
        </mxCell>
        <mxCell id="lT_C5QnImEUUOf2nxoUM-55" value="yes" style="text;html=1;align=center;verticalAlign=middle;resizable=0;points=[];labelBackgroundColor=#ffffff;" parent="lT_C5QnImEUUOf2nxoUM-54" vertex="1" connectable="0">
          <mxGeometry x="-0.0148" relative="1" as="geometry">
            <mxPoint as="offset"/>
          </mxGeometry>
        </mxCell>
        <mxCell id="lT_C5QnImEUUOf2nxoUM-58" style="edgeStyle=orthogonalEdgeStyle;rounded=0;orthogonalLoop=1;jettySize=auto;html=1;exitX=0;exitY=0.5;exitDx=0;exitDy=0;exitPerimeter=0;entryX=0.987;entryY=0.783;entryDx=0;entryDy=0;entryPerimeter=0;" parent="lT_C5QnImEUUOf2nxoUM-20" source="lT_C5QnImEUUOf2nxoUM-56" target="lT_C5QnImEUUOf2nxoUM-52" edge="1">
          <mxGeometry relative="1" as="geometry"/>
        </mxCell>
        <mxCell id="lT_C5QnImEUUOf2nxoUM-59" value="yes" style="text;html=1;align=center;verticalAlign=middle;resizable=0;points=[];labelBackgroundColor=#ffffff;" parent="lT_C5QnImEUUOf2nxoUM-58" vertex="1" connectable="0">
          <mxGeometry x="-0.2222" y="-5" relative="1" as="geometry">
            <mxPoint as="offset"/>
          </mxGeometry>
        </mxCell>
        <mxCell id="lT_C5QnImEUUOf2nxoUM-69" style="edgeStyle=orthogonalEdgeStyle;rounded=0;orthogonalLoop=1;jettySize=auto;html=1;exitX=0;exitY=0.25;exitDx=0;exitDy=0;entryX=1;entryY=0.5;entryDx=0;entryDy=0;entryPerimeter=0;" parent="lT_C5QnImEUUOf2nxoUM-20" source="lT_C5QnImEUUOf2nxoUM-61" target="lT_C5QnImEUUOf2nxoUM-70" edge="1">
          <mxGeometry relative="1" as="geometry">
            <mxPoint x="290" y="419.9999999999999" as="targetPoint"/>
          </mxGeometry>
        </mxCell>
        <mxCell id="AOfhjGViMAb5HMN7zUKc-1" style="edgeStyle=orthogonalEdgeStyle;rounded=0;orthogonalLoop=1;jettySize=auto;html=1;exitX=0.5;exitY=1;exitDx=0;exitDy=0;exitPerimeter=0;entryX=0.199;entryY=0.718;entryDx=0;entryDy=0;entryPerimeter=0;" edge="1" parent="lT_C5QnImEUUOf2nxoUM-20" source="lT_C5QnImEUUOf2nxoUM-52" target="lT_C5QnImEUUOf2nxoUM-56">
          <mxGeometry relative="1" as="geometry"/>
        </mxCell>
        <mxCell id="lT_C5QnImEUUOf2nxoUM-33" value="" style="endArrow=open;endFill=1;endSize=12;html=1;" parent="1" edge="1">
          <mxGeometry width="160" relative="1" as="geometry">
            <mxPoint x="20" y="720" as="sourcePoint"/>
            <mxPoint x="180" y="720" as="targetPoint"/>
          </mxGeometry>
        </mxCell>
        <mxCell id="lT_C5QnImEUUOf2nxoUM-34" style="edgeStyle=orthogonalEdgeStyle;rounded=0;orthogonalLoop=1;jettySize=auto;html=1;exitX=0.5;exitY=1;exitDx=0;exitDy=0;" parent="1" source="lT_C5QnImEUUOf2nxoUM-30" edge="1">
          <mxGeometry relative="1" as="geometry">
            <mxPoint x="140" y="120" as="targetPoint"/>
          </mxGeometry>
        </mxCell>
        <mxCell id="lT_C5QnImEUUOf2nxoUM-38" style="edgeStyle=orthogonalEdgeStyle;rounded=0;orthogonalLoop=1;jettySize=auto;html=1;exitX=0.5;exitY=1;exitDx=0;exitDy=0;exitPerimeter=0;" parent="1" source="lT_C5QnImEUUOf2nxoUM-35" edge="1">
          <mxGeometry relative="1" as="geometry">
            <mxPoint x="145" y="190" as="targetPoint"/>
          </mxGeometry>
        </mxCell>
        <mxCell id="lT_C5QnImEUUOf2nxoUM-40" value="" style="endArrow=classic;html=1;" parent="1" edge="1">
          <mxGeometry width="50" height="50" relative="1" as="geometry">
            <mxPoint x="10" y="890" as="sourcePoint"/>
            <mxPoint x="60" y="840" as="targetPoint"/>
          </mxGeometry>
        </mxCell>
        <mxCell id="lT_C5QnImEUUOf2nxoUM-41" style="edgeStyle=orthogonalEdgeStyle;rounded=0;orthogonalLoop=1;jettySize=auto;html=1;exitX=1;exitY=0.5;exitDx=0;exitDy=0;exitPerimeter=0;" parent="1" source="lT_C5QnImEUUOf2nxoUM-39" edge="1">
          <mxGeometry relative="1" as="geometry">
            <mxPoint x="270" y="260" as="targetPoint"/>
          </mxGeometry>
        </mxCell>
        <mxCell id="lT_C5QnImEUUOf2nxoUM-43" value="no" style="text;html=1;align=center;verticalAlign=middle;resizable=0;points=[];labelBackgroundColor=#ffffff;" parent="lT_C5QnImEUUOf2nxoUM-41" vertex="1" connectable="0">
          <mxGeometry x="-0.0727" relative="1" as="geometry">
            <mxPoint as="offset"/>
          </mxGeometry>
        </mxCell>
        <mxCell id="lT_C5QnImEUUOf2nxoUM-44" value="" style="endArrow=classic;html=1;" parent="1" edge="1">
          <mxGeometry width="50" height="50" relative="1" as="geometry">
            <mxPoint x="10" y="970" as="sourcePoint"/>
            <mxPoint x="60" y="920" as="targetPoint"/>
          </mxGeometry>
        </mxCell>
        <mxCell id="lT_C5QnImEUUOf2nxoUM-45" style="edgeStyle=orthogonalEdgeStyle;rounded=0;orthogonalLoop=1;jettySize=auto;html=1;exitX=1;exitY=0.5;exitDx=0;exitDy=0;exitPerimeter=0;" parent="1" source="lT_C5QnImEUUOf2nxoUM-42" edge="1">
          <mxGeometry relative="1" as="geometry">
            <mxPoint x="470" y="280" as="targetPoint"/>
          </mxGeometry>
        </mxCell>
        <mxCell id="lT_C5QnImEUUOf2nxoUM-48" value="" style="endArrow=classic;html=1;" parent="1" edge="1">
          <mxGeometry width="50" height="50" relative="1" as="geometry">
            <mxPoint x="10" y="1053" as="sourcePoint"/>
            <mxPoint x="60" y="1003" as="targetPoint"/>
          </mxGeometry>
        </mxCell>
        <mxCell id="lT_C5QnImEUUOf2nxoUM-53" value="" style="endArrow=classic;html=1;" parent="1" edge="1">
          <mxGeometry width="50" height="50" relative="1" as="geometry">
            <mxPoint x="30" y="1130" as="sourcePoint"/>
            <mxPoint x="80" y="1080" as="targetPoint"/>
          </mxGeometry>
        </mxCell>
        <mxCell id="lT_C5QnImEUUOf2nxoUM-65" value="" style="endArrow=classic;html=1;" parent="1" edge="1">
          <mxGeometry width="50" height="50" relative="1" as="geometry">
            <mxPoint x="30" y="1210" as="sourcePoint"/>
            <mxPoint x="80" y="1160" as="targetPoint"/>
          </mxGeometry>
        </mxCell>
        <mxCell id="lT_C5QnImEUUOf2nxoUM-68" value="" style="endArrow=classic;html=1;" parent="1" edge="1">
          <mxGeometry width="50" height="50" relative="1" as="geometry">
            <mxPoint x="30" y="1290" as="sourcePoint"/>
            <mxPoint x="80" y="1240" as="targetPoint"/>
          </mxGeometry>
        </mxCell>
      </root>
    </mxGraphModel>
  </diagram>
</mxfile>
